<svg xmlns="http://www.w3.org/2000/svg" width="337.064" height="18.538" viewBox="0 0 337.064 18.538"><path d="M1.118-8.918a9.244,9.244,0,0,0,9.36,9.23,9.234,9.234,0,0,0,9.386-9.23,9.234,9.234,0,0,0-9.386-9.23A9.244,9.244,0,0,0,1.118-8.918Zm3.12,0a6.394,6.394,0,0,1,6.24-6.6,6.4,6.4,0,0,1,6.266,6.6,6.421,6.421,0,0,1-6.266,6.63A6.417,6.417,0,0,1,4.238-8.918ZM24.726,0c.26-.78.572-1.664.936-2.574,1.274-3.172,2.678-6.552,4.056-9.75,1.326,3.224,2.47,5.9,3.744,9.074.468,1.274.884,2.392,1.144,3.25h3.9a32.958,32.958,0,0,1-1.95-3.952l-6.24-14.274H29.51L23.244-3.952A37.528,37.528,0,0,1,21.32,0ZM40.014-8.918a9.244,9.244,0,0,0,9.36,9.23,9.234,9.234,0,0,0,9.386-9.23,9.234,9.234,0,0,0-9.386-9.23A9.244,9.244,0,0,0,40.014-8.918Zm3.12,0a6.394,6.394,0,0,1,6.24-6.6,6.4,6.4,0,0,1,6.266,6.6,6.421,6.421,0,0,1-6.266,6.63A6.417,6.417,0,0,1,43.134-8.918ZM64.818,0a32.591,32.591,0,0,1,.338-3.276l1.04-7.748L71.318.156h.78l5.2-11.18L78.13-3.3c.156,1.534.26,2.548.26,3.3h3.484a43.127,43.127,0,0,1-.754-4.316L79.43-18.148H78.6L71.89-4.628l-6.552-13.52h-.78L62.452-4.706c-.286,1.872-.6,3.848-.806,4.706ZM88.972-8.112h1.716c1.768,0,3.406.026,4.212.078v-2.7c-.806.052-2.444.078-4.212.078H88.972v-4.628h1.846c1.794,0,3.64.026,4.446.1V-17.94c-.806.052-2.652.13-4.446.13H85.8c.052.78.1,2.834.1,4.628v8.528c0,1.17-.052,3.224-.1,4.654h5.226c1.794,0,3.666.052,4.446.1v-2.73c-.78.052-2.652.078-4.446.078H88.972ZM101.374,0c.26-.78.572-1.664.936-2.574,1.274-3.172,2.678-6.552,4.056-9.75,1.326,3.224,2.47,5.9,3.744,9.074.468,1.274.884,2.392,1.144,3.25h3.9a32.957,32.957,0,0,1-1.95-3.952l-6.24-14.274h-.806L99.892-3.952A37.527,37.527,0,0,1,97.968,0ZM121.03-8.112h1.716c1.768,0,3.406.026,4.212.078v-2.7c-.806.052-2.444.078-4.212.078H121.03v-4.628h1.846c1.794,0,3.64.026,4.446.1V-17.94c-.806.052-2.652.13-4.446.13h-5.018c.052.78.1,2.834.1,4.628v8.528c0,1.17-.052,3.224-.1,4.654h5.226c1.794,0,3.666.052,4.446.1v-2.73c-.78.052-2.652.078-4.446.078H121.03ZM134.6-13.156c0-1.768.052-3.874.1-4.654h-3.25c.052.78.1,2.886.1,4.654v8.5c0,1.768-.052,3.848-.1,4.654h3.25c-.052-.806-.1-2.886-.1-4.654ZM155.142,0c-.6-1.066-1.352-2.47-2.028-3.952l-6.448-14.17h-.858L139.49-3.952c-.65,1.482-1.326,2.808-1.95,3.952h3.3c.234-.7.546-1.482,1.014-2.574l.988-2.366h6.448l1.014,2.418c.39.962.78,1.846,1.014,2.522Zm-6.89-7.41h-4.368l2.184-5.33ZM179.218,0c-.6-1.092-1.3-2.5-1.924-3.952L171-18.226h-.676L164.138-3.952A37.386,37.386,0,0,1,162.188,0Zm-8.762-12.61,4.056,10.062H166.5Zm14.872-.546c0-1.768.052-3.874.1-4.654h-3.25c.052.78.1,2.886.1,4.654v8.5c0,1.768-.052,3.848-.1,4.654h3.25c-.052-.806-.1-2.886-.1-4.654ZM196.4-9.308l4.446-5.356c1.2-1.508,1.82-2.21,2.678-3.146H199.94c-.52.832-1.04,1.482-2.21,3.016l-4.316,5.33v-3.692c0-1.9.052-3.874.1-4.654h-3.276c.052.78.1,2.756.1,4.654v8.5c0,1.9-.052,3.848-.1,4.654h3.276c-.052-.806-.1-2.756-.1-4.654V-8.346l5.252,6.058A17.325,17.325,0,0,1,200.382,0h4.342c-.91-.962-1.794-1.82-2.938-3.146ZM210.47,0c-.052-.728-.078-2.392-.078-3.744V-8.216h8.476V-3.77c0,1.378-.052,3.042-.13,3.77h3.276c-.052-.728-.1-2.392-.1-3.744v-9.412c0-1.43.052-3.51.1-4.654h-3.276c.078,1.092.13,3.172.13,4.654v2.392h-8.476v-2.392c0-1.846.026-3.952.078-4.654h-3.25c.052.7.1,2.808.1,4.654V-3.77c0,1.378-.052,3.042-.1,3.77Zm16.3,0h3.276c-.052-.806-.1-2.886-.1-4.654V-15.21h3.224c1.768,0,2.99.052,3.77.13v-2.86c-.78.052-2,.13-3.77.13h-6.4c.052.78.1,2.86.1,4.654v8.5C226.876-2.886,226.824-.806,226.772,0ZM238.68-8.918a9.244,9.244,0,0,0,9.36,9.23,9.234,9.234,0,0,0,9.386-9.23,9.234,9.234,0,0,0-9.386-9.23A9.244,9.244,0,0,0,238.68-8.918Zm3.12,0a6.394,6.394,0,0,1,6.24-6.6,6.4,6.4,0,0,1,6.266,6.6,6.421,6.421,0,0,1-6.266,6.63A6.417,6.417,0,0,1,241.8-8.918ZM264.576-6.63h1.69c3.8,0,6.162-2.34,6.162-5.564,0-3.25-2.236-5.616-6.11-5.616H261.4c.052.78.1,2.522.1,4.29v8.866c0,1.768-.052,3.848-.1,4.654h3.276c-.078-.806-.1-2.886-.1-4.654Zm0-8.84h1.378a3.21,3.21,0,0,1,3.406,3.25,3.3,3.3,0,0,1-3.406,3.25h-1.378Zm14.664,2.314c0-1.768.052-3.874.1-4.654h-3.25c.052.78.1,2.886.1,4.654v8.5c0,1.768-.052,3.848-.1,4.654h3.25c-.052-.806-.1-2.886-.1-4.654Zm11.076,3.848,4.446-5.356c1.2-1.508,1.82-2.21,2.678-3.146h-3.588c-.52.832-1.04,1.482-2.21,3.016l-4.316,5.33v-3.692c0-1.9.052-3.874.1-4.654h-3.276c.052.78.1,2.756.1,4.654v8.5c0,1.9-.052,3.848-.1,4.654h3.276c-.052-.806-.1-2.756-.1-4.654V-8.346l5.252,6.058A17.322,17.322,0,0,1,294.294,0h4.342c-.91-.962-1.794-1.82-2.938-3.146ZM300.43.1c.78-.052,2.444-.1,4.212-.1h3.51V-2.626A7.574,7.574,0,0,1,304.2-9.152c0-3.51,2.444-6.37,5.9-6.37a6.065,6.065,0,0,1,5.928,6.37,7.867,7.867,0,0,1-3.978,6.526V0h3.328c1.794,0,3.614.052,4.42.1V-2.548c-.806.052-1.794.1-3.562.1h-1.014a8.443,8.443,0,0,0,3.926-6.838A8.7,8.7,0,0,0,310.1-18.1a8.658,8.658,0,0,0-9,8.814,8.552,8.552,0,0,0,3.848,6.838h-1.17c-1.768,0-2.574-.052-3.354-.1Zm26.1-.1c-.052-.728-.078-2.392-.078-3.744l.026-8.19,8.944,9.854c.832.884,1.378,1.534,2.106,2.392h.65c-.078-1.508-.1-2.834-.1-3.926v-9.542c0-1.43.052-3.51.1-4.654h-3.12c.052,1.092.078,3.172.078,4.654v7.124l-8.632-9.594c-.858-.884-1.43-1.456-2.418-2.548h-.676c.052,1.4.1,3.484.1,5.07V-3.77c0,1.378-.052,3.042-.1,3.77Z" transform="translate(-1.118 18.226)" fill="#fff"/></svg>