<?xml version="1.0" standalone="no"?>
<!DOCTYPE svg PUBLIC "-//W3C//DTD SVG 20010904//EN"
 "http://www.w3.org/TR/2001/REC-SVG-20010904/DTD/svg10.dtd">
<svg version="1.0" xmlns="http://www.w3.org/2000/svg"
 width="266.000000pt" height="266.000000pt" viewBox="0 0 266.000000 266.000000"
 preserveAspectRatio="xMidYMid meet">
<metadata>
Created by potrace 1.14, written by Peter Selinger 2001-2017
</metadata>
<g transform="translate(0.000000,266.000000) scale(0.100000,-0.100000)"
fill="#000000" stroke="none">
<path d="M942 2636 c-7 -15 -31 -30 -74 -46 -82 -30 -117 -55 -134 -96 -8 -18
-18 -35 -24 -39 -14 -9 -13 1 5 35 14 27 14 30 0 30 -51 0 -149 -84 -161 -138
-10 -49 -17 -59 -22 -38 -3 15 -11 10 -49 -30 -68 -74 -104 -128 -123 -185
-15 -44 -19 -48 -25 -30 -6 20 -9 18 -36 -24 -30 -47 -79 -141 -79 -150 0 -3
0 -6 -1 -7 -10 -34 -12 -97 -5 -165 4 -40 -5 -42 -36 -4 l-24 28 -11 -56 c-16
-89 -9 -163 21 -220 29 -56 30 -61 16 -61 -5 0 -10 8 -11 18 -3 43 -19 -61
-21 -128 -1 -79 12 -126 50 -168 11 -13 23 -45 27 -74 14 -99 66 -183 136
-219 38 -19 46 -44 11 -33 -10 4 -13 3 -6 -3 6 -4 21 -28 33 -53 44 -89 103
-139 188 -159 l38 -9 -44 -1 -44 -1 34 -23 c19 -13 52 -40 74 -61 25 -23 60
-43 94 -53 36 -10 49 -18 40 -23 -9 -6 -4 -11 17 -15 35 -9 114 -53 114 -64 0
-5 25 -21 54 -37 51 -27 54 -30 39 -46 -9 -10 -20 -18 -24 -18 -5 0 -38 -21
-74 -47 -36 -26 -72 -48 -81 -49 -26 -4 -52 -33 -56 -65 -3 -16 -1 -32 4 -35
4 -3 8 -1 8 5 0 6 16 13 36 17 22 4 50 21 72 43 55 55 114 98 187 137 53 27
70 32 86 24 10 -6 19 -8 19 -6 0 3 11 1 26 -4 60 -23 158 -30 194 -14 18 9 16
8 58 18 58 14 183 -63 322 -197 36 -35 76 -67 88 -71 12 -4 22 -12 22 -19 0
-7 3 -8 10 -1 20 20 -1 74 -39 102 -20 15 -68 53 -108 85 -39 31 -75 57 -80
57 -16 1 -68 50 -53 50 8 0 55 27 103 60 53 36 99 60 115 60 20 0 23 3 13 9
-11 7 -3 12 29 21 47 13 97 43 148 89 19 17 44 33 55 37 22 7 21 8 -3 15 l-25
7 24 8 c71 22 107 51 154 128 26 43 47 79 47 81 0 2 -10 1 -22 -1 -25 -5 -25
-5 45 41 64 42 122 149 129 235 1 19 12 39 25 50 39 31 55 94 49 190 -3 47 -6
90 -6 95 0 6 -7 1 -15 -9 -24 -32 -17 1 12 57 24 45 27 63 27 132 -1 44 -2 95
-4 113 l-3 34 -26 -31 c-15 -17 -30 -31 -34 -31 -6 0 -3 100 4 125 7 25 -16
98 -58 183 -49 98 -63 117 -63 83 0 -36 -17 -23 -24 17 -6 38 -53 117 -120
200 -30 37 -36 40 -45 25 -7 -14 -11 -10 -20 22 -6 22 -20 53 -30 69 -19 28
-95 86 -113 86 -5 0 -6 5 -3 10 3 6 2 10 -3 10 -16 0 -23 -30 -12 -50 6 -10
10 -25 10 -32 0 -7 -13 9 -28 37 -27 50 -55 69 -169 118 -24 10 -43 25 -43 33
0 8 -4 14 -10 14 -5 0 -10 -11 -10 -24 0 -27 -15 -42 -25 -26 -6 10 -58 26
-119 36 l-39 6 39 -50 c21 -28 57 -60 78 -73 l39 -22 -29 -13 c-16 -7 -22 -13
-13 -13 8 -1 31 -13 50 -27 56 -43 128 -72 196 -80 34 -3 63 -10 63 -15 0 -5
-6 -10 -12 -10 -7 -1 -17 -2 -23 -4 -5 -1 -14 -3 -18 -3 -5 -1 13 -24 39 -52
44 -47 146 -110 177 -110 8 0 20 -7 27 -15 10 -12 7 -13 -20 -5 -18 5 -39 15
-48 22 -14 12 -14 10 -2 -12 36 -69 114 -180 136 -195 15 -9 23 -22 20 -30 -7
-19 22 -102 53 -148 25 -39 23 -47 -14 -60 -6 -2 -3 -12 6 -23 20 -23 26 -44
33 -113 4 -29 16 -70 27 -91 l21 -38 -26 -65 c-14 -36 -29 -97 -32 -138 -7
-69 -10 -77 -51 -124 -44 -50 -83 -135 -83 -180 0 -23 -44 -65 -68 -65 -6 0
-12 -3 -14 -7 -1 -5 -19 -21 -38 -37 -19 -16 -59 -61 -89 -100 -46 -61 -62
-74 -112 -94 -32 -13 -78 -41 -101 -62 -34 -30 -54 -39 -97 -44 -80 -10 -100
-16 -168 -52 -56 -31 -63 -32 -90 -20 -34 16 -145 15 -165 -2 -11 -9 -19 -8
-34 2 -74 51 -132 73 -214 83 -34 4 -54 14 -79 39 -19 19 -60 46 -90 60 -84
39 -84 39 -101 66 -47 78 -118 155 -178 192 -45 28 -49 33 -55 81 -7 48 -34
105 -79 164 -36 48 -41 61 -45 119 -2 36 -15 99 -29 139 l-25 73 21 35 c11 18
24 58 27 87 7 63 28 118 46 118 6 1 1 10 -12 21 -23 18 -24 23 -11 42 30 47
59 114 64 147 3 22 16 44 35 60 26 22 131 170 131 184 0 4 -13 0 -30 -9 -33
-17 -50 -19 -50 -6 0 5 17 15 38 21 69 23 150 72 181 110 17 21 31 42 31 45 0
10 -103 -4 -114 -15 -14 -14 -29 -13 -20 1 11 18 68 38 130 44 32 3 75 10 94
16 34 9 191 98 177 100 -4 1 -11 2 -16 3 -23 3 -20 16 6 29 26 14 59 46 107
104 l18 21 -44 -5 c-24 -3 -64 -14 -90 -23 l-48 -18 0 28 c0 37 -14 46 -28 16z"/>
<path d="M1200 2304 c-303 -49 -556 -263 -655 -555 -14 -41 -28 -85 -30 -99
-10 -57 -15 -117 -16 -174 0 -54 2 -78 16 -161 8 -51 30 -116 60 -182 139
-298 418 -481 745 -487 58 -1 126 3 153 10 26 7 47 11 47 9 0 -7 139 44 187
68 120 60 233 156 308 262 153 216 195 504 111 752 -131 386 -524 622 -926
557z"/>
</g>
</svg>
