<svg xmlns="http://www.w3.org/2000/svg" width="272.272" height="18.538" viewBox="0 0 272.272 18.538"><path d="M.338,0h10.79c1.378,0,2.392.052,3.2.1v-2.73q-1.209.078-3.276.078h-5.8l5.382-6.526L5.512-15.288H10.53c1.378,0,2.5.052,3.276.1v-2.73c-.78.052-1.82.1-3.172.1H.468v.494c.858.962,1.69,1.95,2.5,2.938L7.488-8.944,2.886-3.38c-.78.962-1.612,1.9-2.548,2.886ZM25.792,0c-.052-.806-.078-2.5-.078-4.264V-8.112l4-6.032C30.6-15.5,31.46-16.77,32.292-17.81H28.73a20.511,20.511,0,0,1-1.456,2.418l-2.99,4.654L21.19-15.522a19.678,19.678,0,0,1-1.326-2.288H16.042a39.5,39.5,0,0,1,2.418,3.354l4.186,6.37v3.822c0,1.768-.026,3.458-.078,4.264Zm8.372,0c.26-.78.572-1.664.936-2.574,1.274-3.172,2.678-6.552,4.056-9.75,1.326,3.224,2.47,5.9,3.744,9.074.468,1.274.884,2.392,1.144,3.25h3.9a32.958,32.958,0,0,1-1.95-3.952l-6.24-14.274h-.806L32.682-3.952A37.528,37.528,0,0,1,30.758,0ZM52.858,0c.26-.78.572-1.664.936-2.574,1.274-3.172,2.678-6.552,4.056-9.75,1.326,3.224,2.47,5.9,3.744,9.074.468,1.274.884,2.392,1.144,3.25h3.9a32.958,32.958,0,0,1-1.95-3.952l-6.24-14.274h-.806L51.376-3.952A37.527,37.527,0,0,1,49.452,0ZM68.146-8.918a9.244,9.244,0,0,0,9.36,9.23,9.234,9.234,0,0,0,9.386-9.23,9.234,9.234,0,0,0-9.386-9.23A9.244,9.244,0,0,0,68.146-8.918Zm3.12,0a6.394,6.394,0,0,1,6.24-6.6,6.4,6.4,0,0,1,6.266,6.6,6.421,6.421,0,0,1-6.266,6.63A6.417,6.417,0,0,1,71.266-8.918ZM90.844,0H94.12c-.052-.806-.1-2.886-.1-4.654V-15.21H97.24c1.768,0,2.99.052,3.77.13v-2.86c-.78.052-2,.13-3.77.13h-6.4c.052.78.1,2.86.1,4.654v8.5C90.948-2.886,90.9-.806,90.844,0Zm11.57.1c.78-.052,2.444-.1,4.212-.1h3.51V-2.626a7.574,7.574,0,0,1-3.952-6.526c0-3.51,2.444-6.37,5.9-6.37a6.065,6.065,0,0,1,5.928,6.37,7.867,7.867,0,0,1-3.978,6.526V0h3.328c1.794,0,3.614.052,4.42.1V-2.548c-.806.052-1.794.1-3.562.1h-1.014a8.443,8.443,0,0,0,3.926-6.838,8.7,8.7,0,0,0-9.048-8.814,8.658,8.658,0,0,0-9,8.814,8.552,8.552,0,0,0,3.848,6.838h-1.17c-1.768,0-2.574-.052-3.354-.1Zm26.1-.1c-.052-.728-.078-2.392-.078-3.744l.026-8.19L137.41-2.08c.832.884,1.378,1.534,2.106,2.392h.65c-.078-1.508-.1-2.834-.1-3.926v-9.542c0-1.43.052-3.51.1-4.654h-3.12c.052,1.092.078,3.172.078,4.654v7.124l-8.632-9.594c-.858-.884-1.43-1.456-2.418-2.548H125.4c.052,1.4.1,3.484.1,5.07V-3.77c0,1.378-.052,3.042-.1,3.77Zm25.558-8.112h1.716c1.768,0,3.406.026,4.212.078v-2.7c-.806.052-2.444.078-4.212.078h-1.716v-4.628h1.846c1.794,0,3.64.026,4.446.1V-17.94c-.806.052-2.652.13-4.446.13H150.9c.052.78.1,2.834.1,4.628v8.528c0,1.17-.052,3.224-.1,4.654h5.226c1.794,0,3.666.052,4.446.1v-2.73c-.78.052-2.652.078-4.446.078h-2.054ZM166.478,0c.26-.78.572-1.664.936-2.574,1.274-3.172,2.678-6.552,4.056-9.75,1.326,3.224,2.47,5.9,3.744,9.074.468,1.274.884,2.392,1.144,3.25h3.9a32.955,32.955,0,0,1-1.95-3.952l-6.24-14.274h-.806L165-3.952A37.527,37.527,0,0,1,163.072,0Zm18.694,0c.26-.78.572-1.664.936-2.574,1.274-3.172,2.678-6.552,4.056-9.75,1.326,3.224,2.47,5.9,3.744,9.074.468,1.274.884,2.392,1.144,3.25h3.9A32.955,32.955,0,0,1,197-3.952l-6.24-14.274h-.806L183.69-3.952A37.527,37.527,0,0,1,181.766,0Zm32.89,0c-.6-1.066-1.352-2.47-2.028-3.952l-6.448-14.17h-.858L202.41-3.952c-.65,1.482-1.326,2.808-1.95,3.952h3.3c.234-.7.546-1.482,1.014-2.574l.988-2.366h6.448l1.014,2.418c.39.962.78,1.846,1.014,2.522Zm-6.89-7.41H206.8l2.184-5.33ZM236.86,0c-.6-1.092-1.3-2.5-1.924-3.952l-6.292-14.274h-.676L221.78-3.952A37.386,37.386,0,0,1,219.83,0ZM228.1-12.61l4.056,10.062h-8.008ZM238.29-8.918a9.244,9.244,0,0,0,9.36,9.23,9.234,9.234,0,0,0,9.386-9.23,9.234,9.234,0,0,0-9.386-9.23A9.244,9.244,0,0,0,238.29-8.918Zm3.12,0a6.394,6.394,0,0,1,6.24-6.6,6.4,6.4,0,0,1,6.266,6.6,6.421,6.421,0,0,1-6.266,6.63A6.417,6.417,0,0,1,241.41-8.918ZM258.622,0h10.79c1.378,0,2.392.052,3.2.1v-2.73q-1.209.078-3.276.078h-5.8l5.382-6.526L263.8-15.288h5.018c1.378,0,2.5.052,3.276.1v-2.73c-.78.052-1.82.1-3.172.1H258.752v.494c.858.962,1.69,1.95,2.5,2.938l4.524,5.434-4.6,5.564c-.78.962-1.612,1.9-2.548,2.886Z" transform="translate(-0.338 18.226)" fill="#fff"/></svg>