<svg xmlns="http://www.w3.org/2000/svg" viewBox="0 0 619 19">
    <style>.st0{fill:#fff}</style>
    <path class="st0"
          d="M9.2 0c5.4 0 9.5 4.1 9.5 9.2s-4.1 9.2-9.5 9.2-9.5-4.1-9.5-9.2S3.8 0 9.2 0zm0 15.3c3.2 0 5.7-2.7 5.7-6.1 0-3.4-2.5-6.1-5.7-6.1S3.5 5.9 3.5 9.2c0 3.4 2.5 6.1 5.7 6.1zM19.6 18.1c.6-1 1.3-2.6 2-4L28-.2h1l6.3 14.3c.6 1.4 1.3 2.9 2 4h-4.8c-.2-.9-.6-2-1.1-3.2-1.1-2.8-2-4.9-3.1-7.8-1.3 2.9-2.5 5.9-3.7 8.7-.3.8-.6 1.6-.8 2.3h-4.2zM47.6 0c5.4 0 9.5 4.1 9.5 9.2s-4.1 9.2-9.5 9.2-9.5-4.1-9.5-9.2c.1-5.1 4.2-9.2 9.5-9.2zm0 15.3c3.2 0 5.7-2.7 5.7-6.1 0-3.4-2.5-6.1-5.7-6.1s-5.7 2.7-5.7 6.1c.1 3.4 2.5 6.1 5.7 6.1zM59.4 18.1c.2-.9.5-2.8.9-4.7L62.5 0h1L70 12.6 76.6 0h1l1.8 13.7c.3 1.9.5 3.2.9 4.4H76c0-.7-.1-1.8-.3-3.1l-.8-6.4-4.7 9.7h-1l-4.7-9.7-.9 6.6c-.2 1.1-.3 2.2-.4 3h-3.8zM87.4 15h1.9c1.8 0 3.7 0 4.4-.1v3.3c-.8-.1-2.7-.1-4.4-.1h-5.8c.1-1.4.1-3.5.1-4.7V4.9c0-1.8-.1-3.8-.1-4.6h5.6c1.8 0 3.6-.1 4.4-.1v3.3c-.8-.1-2.7-.1-4.4-.1h-1.7v3.9h1.5c1.8 0 3.5-.1 4.3-.1v3.3c-.8-.1-2.5-.1-4.3-.1h-1.5V15zM95.9 18.1c.6-1 1.3-2.6 2-4l6.4-14.3h1l6.3 14.3c.6 1.4 1.3 2.9 2 4h-4.8c-.2-.9-.6-2-1.1-3.2-1.1-2.8-2-4.9-3.1-7.8-1.3 2.9-2.5 5.9-3.7 8.7-.3.8-.6 1.6-.8 2.3h-4.2zM119.5 15h1.9c1.8 0 3.7 0 4.4-.1v3.3c-.8-.1-2.7-.1-4.4-.1h-5.8c.1-1.4.1-3.5.1-4.7V4.9c0-1.8-.1-3.8-.1-4.6h5.6c1.8 0 3.6-.1 4.4-.1v3.3c-.8-.1-2.7-.1-4.4-.1h-1.7v3.9h1.5c1.8 0 3.5-.1 4.3-.1v3.3c-.8-.1-2.5-.1-4.3-.1h-1.5V15zM133.3 13.5c0 1.8.1 3.8.1 4.7h-4c.1-.8.1-2.9.1-4.7V5c0-1.8-.1-3.9-.1-4.7h4c-.1.8-.1 2.9-.1 4.7v8.5zM149.3 18.1c-.2-.6-.5-1.4-.9-2.2l-.8-1.9h-6.2l-.8 1.8c-.4.9-.6 1.6-.9 2.3h-4c.6-1.1 1.4-2.4 2-4L144.2 0h1l6.6 14.2c.7 1.5 1.5 2.9 2.1 4h-4.6zm-4.8-11.6l-1.8 4.4h3.7l-1.9-4.4zM160.1 18.1c.7-1.1 1.4-2.5 2-4l6.3-14.3h.8l6.5 14.3c.7 1.5 1.4 2.9 2 4h-17.6zm5.2-3.1h6.7l-3.4-8.3-3.3 8.3zM184 13.5c0 1.8.1 3.8.1 4.7h-4c.1-.8.1-2.9.1-4.7V5c0-1.8-.1-3.9-.1-4.7h4c0 .8-.1 2.9-.1 4.7v8.5zM200.9 14.7c1.1 1.4 2 2.3 3 3.4h-5.2c-.3-.5-.8-1.3-1.7-2.4l-4.7-5.8v3.5c0 1.8.1 3.8.1 4.7h-4c.1-.8.1-2.8.1-4.7V5c0-1.8 0-3.9-.1-4.7h4c-.1.8-.1 2.8-.1 4.7v3.6l4-5.2c1.1-1.5 1.6-2.2 2.1-3.1h4.3c-.9 1-1.4 1.7-2.5 3.2l-4.1 5.3 4.8 5.9zM205.9 18.1c.1-.7.1-2.4.1-3.8V5c0-1.8-.1-4-.1-4.7h3.9c-.1.7-.1 2.8-.1 4.7v2.2h7.6V5c0-1.5 0-3.6-.1-4.7h4c-.1 1.1-.1 3.2-.1 4.7v9.4c0 1.4.1 3 .1 3.7h-4c.1-.7.1-2.4.1-3.8v-4.1h-7.6v4.1c0 1.4 0 3 .1 3.7h-3.9zM225.6 13.5V5c0-1.8-.1-3.9-.1-4.7h7c1.8 0 3-.1 3.8-.1v3.4c-.8-.1-2-.1-3.8-.1h-3.1v10c0 1.8.1 3.8.1 4.7h-4c0-.9.1-3 .1-4.7zM247.2 0c5.4 0 9.5 4.1 9.5 9.2s-4.1 9.2-9.5 9.2-9.5-4.1-9.5-9.2 4.1-9.2 9.5-9.2zm0 15.3c3.2 0 5.7-2.7 5.7-6.1 0-3.4-2.5-6.1-5.7-6.1s-5.7 2.7-5.7 6.1c0 3.4 2.5 6.1 5.7 6.1zM264.1 13.5c0 1.8 0 3.8.1 4.7h-4c.1-.8.1-2.9.1-4.7V4.7c0-1.8-.1-3.6-.1-4.4h5.6c4 0 6.3 2.4 6.3 5.7 0 3.4-2.4 5.7-6.4 5.7H264v1.8zm0-4.6h1.2c1.9 0 3-1.5 3-2.9s-1-2.9-3-2.9h-1.2v5.8zM279.2 13.5c0 1.8.1 3.8.1 4.7h-4c.1-.8.1-2.9.1-4.7V5c0-1.8-.1-3.9-.1-4.7h4c-.1.8-.1 2.9-.1 4.7v8.5zM296.1 14.7c1.1 1.4 2 2.3 3 3.4h-5.2c-.3-.5-.8-1.3-1.7-2.4l-4.7-5.8v3.5c0 1.8.1 3.8.1 4.7h-4c.1-.8.1-2.8.1-4.7V5c0-1.8 0-3.9-.1-4.7h4c-.1.8-.1 2.8-.1 4.7v3.6l4-5.2c1.1-1.5 1.6-2.2 2.1-3.1h4.3c-.9 1-1.4 1.7-2.5 3.2l-4.1 5.3 4.8 5.9zM300.5 15.1c.8.1 1.5.1 3.3.1h.9c-1.9-1.2-3.5-4-3.5-6.4 0-4.9 3.7-8.7 9-8.7 5.4 0 9.1 3.7 9.1 8.7 0 2.5-1.6 5.2-3.5 6.4h.8c1.8 0 2.7 0 3.5-.1v3.2c-.8-.1-2.8-.1-4.5-.1H312V15c1.8-1 3.5-3.5 3.5-6 0-3.2-2.2-5.7-5.3-5.7-3.1 0-5.3 2.5-5.3 5.7 0 2.4 1.5 4.8 3.5 6v3.2h-3.6c-1.8 0-3.6.1-4.4.1v-3.2zM323.2 18.1c.1-.7.1-2.4.1-3.8V5c0-1.6 0-3.7-.1-5.1h.8c1.1 1.2 1.8 1.8 2.6 2.7l8 8.2V5c0-1.5-.1-3.6-.1-4.7h3.8c-.1 1.1-.1 3.2-.1 4.7v9.5c0 1.1 0 2.5.1 4h-.8c-.8-.9-1.4-1.6-2.3-2.4l-8.3-8.6v6.9c0 1.4.1 3 .1 3.7h-3.8zM346.5 17.5c1-1 1.8-2 2.7-3.1l4.2-5.2-4.2-5.1c-.9-1.1-1.7-2.2-2.7-3.2V.3h10.7c1.2 0 2.3-.1 3.1-.1v3.3c-.8-.1-2-.1-3.2-.1h-4.5l4.6 5.6-4.8 6h5.2c1.2 0 2.4 0 3.2-.1v3.3c-.8-.1-1.8-.1-3.1-.1h-11.2v-.6zM368.7 18.1c0-.8.1-2.4.1-4.1v-3.8l-4.2-6.5c-.9-1.4-1.6-2.4-2.4-3.4h4.6c.4.8.7 1.4 1.2 2.2l2.8 4.4 2.7-4.3c.6-.9.9-1.5 1.3-2.3h4.3c-.8 1-1.7 2.4-2.6 3.7l-4 6.1V14c0 1.8 0 3.3.1 4.1h-3.9zM376.9 18.1c.7-1 1.3-2.6 2-4l6.4-14.3h1l6.3 14.3c.6 1.4 1.3 2.9 2 4h-4.8c-.2-.9-.6-2-1.1-3.2-1.1-2.8-2-4.9-3.1-7.8-1.3 2.9-2.5 5.9-3.7 8.7-.3.8-.6 1.6-.8 2.3h-4.2zM395.5 18.1c.7-1 1.3-2.6 2-4l6.4-14.3h1l6.3 14.3c.6 1.4 1.3 2.9 2 4h-4.8c-.2-.9-.6-2-1.1-3.2-1.1-2.8-2-4.9-3.1-7.8-1.3 2.9-2.5 5.9-3.7 8.7-.3.8-.6 1.6-.8 2.3h-4.2zM423.6 0c5.4 0 9.5 4.1 9.5 9.2s-4.1 9.2-9.5 9.2-9.5-4.1-9.5-9.2 4.1-9.2 9.5-9.2zm0 15.3c3.2 0 5.7-2.7 5.7-6.1 0-3.4-2.5-6.1-5.7-6.1s-5.7 2.7-5.7 6.1c0 3.4 2.5 6.1 5.7 6.1zM436.7 13.5V5c0-1.8-.1-3.9-.1-4.7h7c1.8 0 3-.1 3.8-.1v3.4c-.8-.1-2-.1-3.8-.1h-3.1v10c0 1.8.1 3.8.1 4.7h-4c0-.9.1-3 .1-4.7zM448.5 15.1c.8.1 1.5.1 3.3.1h.9c-1.9-1.2-3.5-4-3.5-6.4 0-4.9 3.7-8.7 9-8.7 5.4 0 9.1 3.7 9.1 8.7 0 2.5-1.6 5.2-3.5 6.4h.8c1.8 0 2.7 0 3.5-.1v3.2c-.8-.1-2.8-.1-4.6-.1H460V15c1.8-1 3.5-3.5 3.5-6 0-3.2-2.2-5.7-5.3-5.7-3.1 0-5.3 2.5-5.3 5.7 0 2.4 1.5 4.8 3.5 6v3.2h-3.6c-1.8 0-3.6.1-4.4.1v-3.2zM471.2 18.1c.1-.7.1-2.4.1-3.8V5c0-1.6 0-3.7-.1-5.1h.8c1.1 1.2 1.8 1.8 2.6 2.7l8 8.2V5c0-1.5-.1-3.6-.1-4.7h3.8c-.1 1.1-.1 3.2-.1 4.7v9.5c0 1.1 0 2.5.1 4h-.8c-.8-.9-1.4-1.6-2.3-2.4l-8.3-8.6v6.9c0 1.4.1 3 .1 3.7h-3.8zM499.9 15h1.9c1.8 0 3.7 0 4.4-.1v3.3c-.8-.1-2.7-.1-4.4-.1H496c.1-1.4.1-3.5.1-4.7V4.9c0-1.8-.1-3.8-.1-4.6h5.6c1.8 0 3.6-.1 4.4-.1v3.3c-.8-.1-2.7-.1-4.4-.1h-1.7v3.9h1.5c1.8 0 3.5-.1 4.3-.1v3.3c-.8-.1-2.5-.1-4.3-.1h-1.5V15zM508.4 18.1c.7-1 1.3-2.6 2-4l6.4-14.3h1l6.3 14.3c.6 1.4 1.3 2.9 2 4h-4.8c-.2-.9-.6-2-1.1-3.2-1.1-2.8-2-4.9-3.1-7.8-1.3 2.9-2.5 5.9-3.7 8.7-.3.8-.6 1.6-.8 2.3h-4.2zM527 18.1c.7-1 1.3-2.6 2-4l6.4-14.3h1l6.3 14.3c.6 1.4 1.3 2.9 2 4h-4.8c-.2-.9-.6-2-1.1-3.2-1.1-2.8-2-4.9-3.1-7.8-1.3 2.9-2.5 5.9-3.7 8.7-.3.8-.6 1.6-.8 2.3H527zM559.2 18.1c-.2-.6-.5-1.4-.9-2.2l-.8-1.9h-6.2l-.8 1.8c-.4.9-.7 1.6-.9 2.3h-4c.7-1.1 1.4-2.4 2-4L554.1 0h1l6.6 14.2c.7 1.5 1.5 2.9 2.1 4h-4.6zm-4.8-11.6l-1.8 4.4h3.7l-1.9-4.4zM565.1 18.1c.7-1.1 1.4-2.5 2-4l6.3-14.3h.8l6.5 14.3c.7 1.5 1.4 2.9 2 4h-17.6zm5.2-3.1h6.7l-3.4-8.3-3.3 8.3zM593.1 0c5.4 0 9.5 4.1 9.5 9.2s-4.1 9.2-9.5 9.2-9.5-4.1-9.5-9.2c.1-5.1 4.2-9.2 9.5-9.2zm0 15.3c3.2 0 5.7-2.7 5.7-6.1 0-3.4-2.5-6.1-5.7-6.1s-5.7 2.7-5.7 6.1c0 3.4 2.5 6.1 5.7 6.1zM603.7 17.5c1-1 1.8-2 2.7-3.1l4.2-5.2-4.2-5.1c-.9-1.1-1.7-2.2-2.7-3.2V.3h10.7c1.2 0 2.3-.1 3.1-.1v3.3c-.8-.1-2-.1-3.2-.1h-4.5l4.6 5.6-4.8 6h5.2c1.2 0 2.4 0 3.2-.1v3.3c-.8-.1-1.8-.1-3.1-.1h-11.2v-.6z"/>
</svg>